# MagicaVoxel @ Ephtracy

# group
o 

# material
mtllib chr_knight.mtl
usemtl palette

# normals
vn -1 0 0
vn 1 0 0
vn 0 0 1
vn 0 0 -1
vn 0 -1 0
vn 0 1 0

# texcoords
vt 0.251953 0.5
vt 0.396484 0.5
vt 0.958984 0.5

# verts
v -1 1.9 -0.9
v -1 1.9 -1.1
v -1 2 -0.9
v -1 2 -1.1
v -0.9 1.9 -0.7
v -0.9 1.9 -0.9
v -0.9 2 -0.7
v -0.9 2 -0.9
v -0.8 1.9 -0.5
v -0.8 1.9 -0.7
v -0.8 2 -0.5
v -0.8 2 -0.7
v -0.7 1.9 -0.3
v -0.7 1.9 -0.5
v -0.7 2 -0.3
v -0.7 2 -0.5
v -0.6 1.9 -0.1
v -0.6 1.9 -0.3
v -0.6 2 -0.1
v -0.6 2 -0.3
v -0.5 1.9 0.1
v -0.5 1.9 -0.1
v -0.5 2 0.1
v -0.5 2 -0.1
v -0.4 1.9 0.2
v -0.4 1.9 0.1
v -0.4 2 0.2
v -0.4 2 0.1
v -0.3 1.9 0.3
v -0.3 1.9 0.2
v -0.3 2 0.3
v -0.3 2 0.2
v -0.2 1.9 0.4
v -0.2 1.9 0.3
v -0.2 2 0.4
v -0.2 2 0.3
v -0.1 1.9 0.6
v -0.1 1.9 0.4
v -0.1 2 0.6
v -0.1 2 0.4
v 0.1 1.9 0.6
v 0.1 1.9 0.4
v 0.1 2 0.6
v 0.1 2 0.4
v 0.2 1.9 0.4
v 0.2 1.9 0.3
v 0.2 2 0.4
v 0.2 2 0.3
v 0.3 1.9 0.3
v 0.3 1.9 0.2
v 0.3 2 0.3
v 0.3 2 0.2
v 0.4 1.9 0.2
v 0.4 1.9 0.1
v 0.4 2 0.2
v 0.4 2 0.1
v 0.5 1.9 0.1
v 0.5 1.9 -0.1
v 0.5 2 0.1
v 0.5 2 -0.1
v 0.6 1.9 -0.1
v 0.6 1.9 -0.5
v 0.6 2 -0.1
v 0.6 2 -0.5
v 0.7 1.9 -0.5
v 0.7 1.9 -0.6
v 0.7 2 -0.5
v 0.7 2 -0.6
v 0.8 1.9 -0.6
v 0.8 1.9 -0.7
v 0.8 2 -0.6
v 0.8 2 -0.7
v 0.9 1.9 -0.7
v 0.9 1.9 -0.9
v 0.9 2 -0.7
v 0.9 2 -0.9
v 1 1.9 -0.9
v 1 1.9 -1.1
v 1 2 -0.9
v 1 2 -1.1
v -0.1 1.9 0.6
v -0.1 2 0.6
v 0.1 1.9 0.6
v 0.1 2 0.6
v -0.2 1.9 0.4
v -0.2 2 0.4
v -0.1 1.9 0.4
v -0.1 2 0.4
v 0.1 1.9 0.4
v 0.1 2 0.4
v 0.2 1.9 0.4
v 0.2 2 0.4
v -0.3 1.9 0.3
v -0.3 2 0.3
v -0.2 1.9 0.3
v -0.2 2 0.3
v 0.2 1.9 0.3
v 0.2 2 0.3
v 0.3 1.9 0.3
v 0.3 2 0.3
v -0.4 1.9 0.2
v -0.4 2 0.2
v -0.3 1.9 0.2
v -0.3 2 0.2
v 0.3 1.9 0.2
v 0.3 2 0.2
v 0.4 1.9 0.2
v 0.4 2 0.2
v -0.5 1.9 0.1
v -0.5 2 0.1
v -0.4 1.9 0.1
v -0.4 2 0.1
v 0.4 1.9 0.1
v 0.4 2 0.1
v 0.5 1.9 0.1
v 0.5 2 0.1
v -0.6 1.9 -0.1
v -0.6 2 -0.1
v -0.5 1.9 -0.1
v -0.5 2 -0.1
v 0.5 1.9 -0.1
v 0.5 2 -0.1
v 0.6 1.9 -0.1
v 0.6 2 -0.1
v -0.7 1.9 -0.3
v -0.7 2 -0.3
v -0.6 1.9 -0.3
v -0.6 2 -0.3
v -0.8 1.9 -0.5
v -0.8 2 -0.5
v -0.7 1.9 -0.5
v -0.7 2 -0.5
v 0.6 1.9 -0.5
v 0.6 2 -0.5
v 0.7 1.9 -0.5
v 0.7 2 -0.5
v 0.7 1.9 -0.6
v 0.7 2 -0.6
v 0.8 1.9 -0.6
v 0.8 2 -0.6
v -0.9 1.9 -0.7
v -0.9 2 -0.7
v -0.8 1.9 -0.7
v -0.8 2 -0.7
v 0.8 1.9 -0.7
v 0.8 2 -0.7
v 0.9 1.9 -0.7
v 0.9 2 -0.7
v -1 1.9 -0.9
v -1 2 -0.9
v -0.9 1.9 -0.9
v -0.9 2 -0.9
v 0.9 1.9 -0.9
v 0.9 2 -0.9
v 1 1.9 -0.9
v 1 2 -0.9
v -1 1.9 -1.1
v -1 2 -1.1
v 1 1.9 -1.1
v 1 2 -1.1
v -0.1 1.9 0.6
v 0.1 1.9 0.6
v -0.2 1.9 0.4
v -0.1 1.9 0.4
v 0.1 1.9 0.4
v 0.2 1.9 0.4
v -0.3 1.9 0.3
v -0.2 1.9 0.3
v 0.2 1.9 0.3
v 0.3 1.9 0.3
v -0.4 1.9 0.2
v -0.3 1.9 0.2
v 0.3 1.9 0.2
v 0.4 1.9 0.2
v -0.5 1.9 0.1
v -0.4 1.9 0.1
v -0.3 1.9 0.1
v -0.1 1.9 0.1
v 0.1 1.9 0.1
v 0.3 1.9 0.1
v 0.4 1.9 0.1
v 0.5 1.9 0.1
v -0.6 1.9 -0.1
v -0.5 1.9 -0.1
v -0.4 1.9 -0.1
v 0.4 1.9 -0.1
v 0.5 1.9 -0.1
v 0.6 1.9 -0.1
v -0.7 1.9 -0.3
v -0.6 1.9 -0.3
v -0.5 1.9 -0.3
v -0.8 1.9 -0.5
v -0.7 1.9 -0.5
v -0.6 1.9 -0.5
v 0.5 1.9 -0.5
v 0.6 1.9 -0.5
v 0.7 1.9 -0.5
v 0.7 1.9 -0.6
v 0.8 1.9 -0.6
v -0.9 1.9 -0.7
v -0.8 1.9 -0.7
v -0.7 1.9 -0.7
v 0.6 1.9 -0.7
v 0.7 1.9 -0.7
v 0.8 1.9 -0.7
v 0.9 1.9 -0.7
v 0.7 1.9 -0.8
v 0.8 1.9 -0.8
v -1 1.9 -0.9
v -0.9 1.9 -0.9
v -0.8 1.9 -0.9
v 0.8 1.9 -0.9
v 0.9 1.9 -0.9
v 1 1.9 -0.9
v -0.9 1.9 -1
v -0.5 1.9 -1
v -0.3 1.9 -1
v -0.1 1.9 -1
v 0.1 1.9 -1
v 0.3 1.9 -1
v 0.5 1.9 -1
v 0.9 1.9 -1
v -1 1.9 -1.1
v 1 1.9 -1.1
v -0.1 2 0.6
v 0.1 2 0.6
v -0.2 2 0.4
v -0.1 2 0.4
v 0.1 2 0.4
v 0.2 2 0.4
v -0.3 2 0.3
v -0.2 2 0.3
v 0.2 2 0.3
v 0.3 2 0.3
v -0.4 2 0.2
v -0.3 2 0.2
v 0.3 2 0.2
v 0.4 2 0.2
v -0.5 2 0.1
v -0.4 2 0.1
v -0.3 2 0.1
v -0.1 2 0.1
v 0.1 2 0.1
v 0.3 2 0.1
v 0.4 2 0.1
v 0.5 2 0.1
v -0.6 2 -0.1
v -0.5 2 -0.1
v -0.4 2 -0.1
v 0.4 2 -0.1
v 0.5 2 -0.1
v 0.6 2 -0.1
v -0.7 2 -0.3
v -0.6 2 -0.3
v -0.5 2 -0.3
v -0.8 2 -0.5
v -0.7 2 -0.5
v -0.6 2 -0.5
v 0.5 2 -0.5
v 0.6 2 -0.5
v 0.7 2 -0.5
v 0.7 2 -0.6
v 0.8 2 -0.6
v -0.9 2 -0.7
v -0.8 2 -0.7
v -0.7 2 -0.7
v 0.6 2 -0.7
v 0.7 2 -0.7
v 0.8 2 -0.7
v 0.9 2 -0.7
v 0.7 2 -0.8
v 0.8 2 -0.8
v -1 2 -0.9
v -0.9 2 -0.9
v -0.8 2 -0.9
v 0.8 2 -0.9
v 0.9 2 -0.9
v 1 2 -0.9
v -0.9 2 -1
v -0.5 2 -1
v -0.3 2 -1
v -0.1 2 -1
v 0.1 2 -1
v 0.3 2 -1
v 0.5 2 -1
v 0.9 2 -1
v -1 2 -1.1
v 1 2 -1.1

# faces
f 3/2/1 2/2/1 1/2/1
f 4/2/1 2/2/1 3/2/1
f 7/2/1 6/2/1 5/2/1
f 8/2/1 6/2/1 7/2/1
f 11/2/1 10/2/1 9/2/1
f 12/2/1 10/2/1 11/2/1
f 15/2/1 14/2/1 13/2/1
f 16/2/1 14/2/1 15/2/1
f 19/2/1 18/2/1 17/2/1
f 20/2/1 18/2/1 19/2/1
f 23/2/1 22/2/1 21/2/1
f 24/2/1 22/2/1 23/2/1
f 27/2/1 26/2/1 25/2/1
f 28/2/1 26/2/1 27/2/1
f 31/2/1 30/2/1 29/2/1
f 32/2/1 30/2/1 31/2/1
f 35/2/1 34/2/1 33/2/1
f 36/2/1 34/2/1 35/2/1
f 39/1/1 38/1/1 37/1/1
f 40/1/1 38/1/1 39/1/1
f 41/1/2 42/1/2 43/1/2
f 43/1/2 42/1/2 44/1/2
f 45/2/2 46/2/2 47/2/2
f 47/2/2 46/2/2 48/2/2
f 49/2/2 50/2/2 51/2/2
f 51/2/2 50/2/2 52/2/2
f 53/2/2 54/2/2 55/2/2
f 55/2/2 54/2/2 56/2/2
f 57/2/2 58/2/2 59/2/2
f 59/2/2 58/2/2 60/2/2
f 61/2/2 62/2/2 63/2/2
f 63/2/2 62/2/2 64/2/2
f 65/2/2 66/2/2 67/2/2
f 67/2/2 66/2/2 68/2/2
f 69/2/2 70/2/2 71/2/2
f 71/2/2 70/2/2 72/2/2
f 73/2/2 74/2/2 75/2/2
f 75/2/2 74/2/2 76/2/2
f 77/2/2 78/2/2 79/2/2
f 79/2/2 78/2/2 80/2/2
f 83/1/3 82/1/3 81/1/3
f 84/1/3 82/1/3 83/1/3
f 87/2/3 86/2/3 85/2/3
f 88/2/3 86/2/3 87/2/3
f 91/2/3 90/2/3 89/2/3
f 92/2/3 90/2/3 91/2/3
f 95/2/3 94/2/3 93/2/3
f 96/2/3 94/2/3 95/2/3
f 99/2/3 98/2/3 97/2/3
f 100/2/3 98/2/3 99/2/3
f 103/2/3 102/2/3 101/2/3
f 104/2/3 102/2/3 103/2/3
f 107/2/3 106/2/3 105/2/3
f 108/2/3 106/2/3 107/2/3
f 111/2/3 110/2/3 109/2/3
f 112/2/3 110/2/3 111/2/3
f 115/2/3 114/2/3 113/2/3
f 116/2/3 114/2/3 115/2/3
f 119/2/3 118/2/3 117/2/3
f 120/2/3 118/2/3 119/2/3
f 123/2/3 122/2/3 121/2/3
f 124/2/3 122/2/3 123/2/3
f 127/2/3 126/2/3 125/2/3
f 128/2/3 126/2/3 127/2/3
f 131/2/3 130/2/3 129/2/3
f 132/2/3 130/2/3 131/2/3
f 135/2/3 134/2/3 133/2/3
f 136/2/3 134/2/3 135/2/3
f 139/2/3 138/2/3 137/2/3
f 140/2/3 138/2/3 139/2/3
f 143/2/3 142/2/3 141/2/3
f 144/2/3 142/2/3 143/2/3
f 147/2/3 146/2/3 145/2/3
f 148/2/3 146/2/3 147/2/3
f 151/2/3 150/2/3 149/2/3
f 152/2/3 150/2/3 151/2/3
f 155/2/3 154/2/3 153/2/3
f 156/2/3 154/2/3 155/2/3
f 157/2/4 158/2/4 159/2/4
f 159/2/4 158/2/4 160/2/4
f 164/1/5 162/1/5 161/1/5
f 165/1/5 162/1/5 164/1/5
f 168/2/5 164/2/5 163/2/5
f 169/2/5 166/2/5 165/2/5
f 172/2/5 168/2/5 167/2/5
f 173/2/5 170/2/5 169/2/5
f 176/2/5 172/2/5 171/2/5
f 177/2/5 168/2/5 172/2/5
f 177/2/5 172/2/5 176/2/5
f 178/1/5 165/1/5 164/1/5
f 178/2/5 168/2/5 177/2/5
f 178/2/5 164/2/5 168/2/5
f 179/2/5 174/2/5 173/2/5
f 179/1/5 165/1/5 178/1/5
f 179/2/5 169/2/5 165/2/5
f 179/2/5 173/2/5 169/2/5
f 180/2/5 174/2/5 179/2/5
f 181/2/5 174/2/5 180/2/5
f 184/2/5 176/2/5 175/2/5
f 185/1/5 177/1/5 176/1/5
f 185/2/5 176/2/5 184/2/5
f 186/2/5 182/2/5 181/2/5
f 186/1/5 181/1/5 180/1/5
f 187/2/5 182/2/5 186/2/5
f 190/2/5 184/2/5 183/2/5
f 191/1/5 185/1/5 184/1/5
f 191/2/5 184/2/5 190/2/5
f 193/2/5 190/2/5 189/2/5
f 194/3/5 191/3/5 190/3/5
f 194/2/5 190/2/5 193/2/5
f 195/2/5 188/2/5 187/2/5
f 195/1/5 187/1/5 186/1/5
f 196/2/5 188/2/5 195/2/5
f 198/2/5 197/2/5 196/2/5
f 201/2/5 193/2/5 192/2/5
f 202/3/5 194/3/5 193/3/5
f 202/2/5 193/2/5 201/2/5
f 203/2/5 199/2/5 198/2/5
f 203/3/5 196/3/5 195/3/5
f 203/2/5 198/2/5 196/2/5
f 204/2/5 199/2/5 203/2/5
f 205/2/5 199/2/5 204/2/5
f 207/3/5 204/3/5 203/3/5
f 207/2/5 206/2/5 205/2/5
f 207/2/5 205/2/5 204/2/5
f 208/2/5 206/2/5 207/2/5
f 210/2/5 201/2/5 200/2/5
f 211/3/5 202/3/5 201/3/5
f 211/2/5 201/2/5 210/2/5
f 212/2/5 206/2/5 208/2/5
f 212/3/5 208/3/5 207/3/5
f 213/2/5 206/2/5 212/2/5
f 215/2/5 210/2/5 209/2/5
f 215/3/5 211/3/5 210/3/5
f 216/3/5 191/3/5 194/3/5
f 216/3/5 211/3/5 215/3/5
f 216/1/5 185/1/5 191/1/5
f 216/3/5 202/3/5 211/3/5
f 216/3/5 194/3/5 202/3/5
f 217/3/5 178/3/5 177/3/5
f 217/1/5 185/1/5 216/1/5
f 217/1/5 177/1/5 185/1/5
f 218/1/5 179/1/5 178/1/5
f 218/3/5 178/3/5 217/3/5
f 219/3/5 180/3/5 179/3/5
f 219/1/5 179/1/5 218/1/5
f 220/1/5 186/1/5 180/1/5
f 220/3/5 180/3/5 219/3/5
f 220/1/5 195/1/5 186/1/5
f 221/3/5 207/3/5 203/3/5
f 221/1/5 195/1/5 220/1/5
f 221/3/5 212/3/5 207/3/5
f 221/3/5 213/3/5 212/3/5
f 221/3/5 203/3/5 195/3/5
f 222/2/5 214/2/5 213/2/5
f 222/3/5 213/3/5 221/3/5
f 223/2/5 216/2/5 215/2/5
f 223/2/5 215/2/5 209/2/5
f 223/2/5 222/2/5 221/2/5
f 223/2/5 220/2/5 219/2/5
f 223/2/5 221/2/5 220/2/5
f 223/2/5 217/2/5 216/2/5
f 223/2/5 218/2/5 217/2/5
f 223/2/5 219/2/5 218/2/5
f 224/2/5 214/2/5 222/2/5
f 224/2/5 222/2/5 223/2/5
f 225/1/6 226/1/6 228/1/6
f 228/1/6 226/1/6 229/1/6
f 227/2/6 228/2/6 232/2/6
f 229/2/6 230/2/6 233/2/6
f 231/2/6 232/2/6 236/2/6
f 233/2/6 234/2/6 237/2/6
f 235/2/6 236/2/6 240/2/6
f 236/2/6 232/2/6 241/2/6
f 240/2/6 236/2/6 241/2/6
f 228/1/6 229/1/6 242/1/6
f 241/2/6 232/2/6 242/2/6
f 232/2/6 228/2/6 242/2/6
f 237/2/6 238/2/6 243/2/6
f 242/1/6 229/1/6 243/1/6
f 229/2/6 233/2/6 243/2/6
f 233/2/6 237/2/6 243/2/6
f 243/2/6 238/2/6 244/2/6
f 244/2/6 238/2/6 245/2/6
f 239/2/6 240/2/6 248/2/6
f 240/1/6 241/1/6 249/1/6
f 248/2/6 240/2/6 249/2/6
f 245/2/6 246/2/6 250/2/6
f 244/1/6 245/1/6 250/1/6
f 250/2/6 246/2/6 251/2/6
f 247/2/6 248/2/6 254/2/6
f 248/1/6 249/1/6 255/1/6
f 254/2/6 248/2/6 255/2/6
f 253/2/6 254/2/6 257/2/6
f 254/3/6 255/3/6 258/3/6
f 257/2/6 254/2/6 258/2/6
f 251/2/6 252/2/6 259/2/6
f 250/1/6 251/1/6 259/1/6
f 259/2/6 252/2/6 260/2/6
f 260/2/6 261/2/6 262/2/6
f 256/2/6 257/2/6 265/2/6
f 257/3/6 258/3/6 266/3/6
f 265/2/6 257/2/6 266/2/6
f 262/2/6 263/2/6 267/2/6
f 259/3/6 260/3/6 267/3/6
f 260/2/6 262/2/6 267/2/6
f 267/2/6 263/2/6 268/2/6
f 268/2/6 263/2/6 269/2/6
f 267/3/6 268/3/6 271/3/6
f 269/2/6 270/2/6 271/2/6
f 268/2/6 269/2/6 271/2/6
f 271/2/6 270/2/6 272/2/6
f 264/2/6 265/2/6 274/2/6
f 265/3/6 266/3/6 275/3/6
f 274/2/6 265/2/6 275/2/6
f 272/2/6 270/2/6 276/2/6
f 271/3/6 272/3/6 276/3/6
f 276/2/6 270/2/6 277/2/6
f 273/2/6 274/2/6 279/2/6
f 274/3/6 275/3/6 279/3/6
f 258/3/6 255/3/6 280/3/6
f 279/3/6 275/3/6 280/3/6
f 255/1/6 249/1/6 280/1/6
f 275/3/6 266/3/6 280/3/6
f 266/3/6 258/3/6 280/3/6
f 241/3/6 242/3/6 281/3/6
f 280/1/6 249/1/6 281/1/6
f 249/1/6 241/1/6 281/1/6
f 242/1/6 243/1/6 282/1/6
f 281/3/6 242/3/6 282/3/6
f 243/3/6 244/3/6 283/3/6
f 282/1/6 243/1/6 283/1/6
f 244/1/6 250/1/6 284/1/6
f 283/3/6 244/3/6 284/3/6
f 250/1/6 259/1/6 284/1/6
f 267/3/6 271/3/6 285/3/6
f 284/1/6 259/1/6 285/1/6
f 271/3/6 276/3/6 285/3/6
f 276/3/6 277/3/6 285/3/6
f 259/3/6 267/3/6 285/3/6
f 277/2/6 278/2/6 286/2/6
f 285/3/6 277/3/6 286/3/6
f 279/2/6 280/2/6 287/2/6
f 273/2/6 279/2/6 287/2/6
f 285/2/6 286/2/6 287/2/6
f 283/2/6 284/2/6 287/2/6
f 284/2/6 285/2/6 287/2/6
f 280/2/6 281/2/6 287/2/6
f 281/2/6 282/2/6 287/2/6
f 282/2/6 283/2/6 287/2/6
f 286/2/6 278/2/6 288/2/6
f 287/2/6 286/2/6 288/2/6
