# MagicaVoxel @ Ephtracy

# group
o 

# material
mtllib untitled.mtl
usemtl palette

# normals
vn -1 0 0
vn 1 0 0
vn 0 0 1
vn 0 0 -1
vn 0 -1 0
vn 0 1 0

# texcoords
vt 0.0410156 0.5
vt 0.841797 0.5
vt 0.978516 0.5

# verts
v -0.3 0.4 -0.3
v -0.3 0.4 -0.6
v -0.3 0.7 -0.3
v -0.3 0.7 -0.6
v -0.2 0.4 -0.1
v -0.2 0.4 -0.3
v -0.2 0.5 -0.6
v -0.2 0.5 -0.9
v -0.2 0.5 -1.2
v -0.2 0.5 -1.3
v -0.2 0.5 -1.5
v -0.2 0.7 -0.1
v -0.2 0.7 -0.3
v -0.2 0.7 -0.6
v -0.2 0.7 -0.9
v -0.2 0.7 -1.2
v -0.2 0.7 -1.3
v -0.2 0.7 -1.5
v -0.1 0.4 -7.45058e-08
v -0.1 0.4 -0.1
v -0.1 0.4 -1.3
v -0.1 0.4 -1.5
v -0.1 0.5 -1.3
v -0.1 0.5 -1.5
v -0.1 0.7 -7.45058e-08
v -0.1 0.7 -0.1
v 2.98023e-08 0.3 -1.3
v 2.98023e-08 0.3 -1.5
v 2.98023e-08 0.4 0.0999999
v 2.98023e-08 0.4 -7.45058e-08
v 2.98023e-08 0.4 -1.3
v 2.98023e-08 0.4 -1.5
v 2.98023e-08 0.5 -0.9
v 2.98023e-08 0.5 -1.2
v 2.98023e-08 0.7 0.0999999
v 2.98023e-08 0.7 -7.45058e-08
v 2.98023e-08 0.7 -0.9
v 2.98023e-08 0.7 -1.2
v 2.98023e-08 0.7 -1.3
v 2.98023e-08 0.7 -1.5
v 2.98023e-08 0.8 -1.3
v 2.98023e-08 0.8 -1.5
v 0.5 0.4 -0.4
v 0.5 0.4 -0.6
v 0.5 0.5 -0.4
v 0.5 0.5 -0.6
v -0.2 0.4 -0.4
v -0.2 0.4 -0.6
v -0.2 0.5 -0.4
v -0.2 0.5 -0.6
v 0.3 0.3 -1.3
v 0.3 0.3 -1.5
v 0.3 0.4 0.0999999
v 0.3 0.4 -7.45058e-08
v 0.3 0.4 -1.3
v 0.3 0.4 -1.5
v 0.3 0.5 -0.9
v 0.3 0.5 -1.2
v 0.3 0.7 0.0999999
v 0.3 0.7 -7.45058e-08
v 0.3 0.7 -0.9
v 0.3 0.7 -1.2
v 0.3 0.7 -1.3
v 0.3 0.7 -1.5
v 0.3 0.8 -1.3
v 0.3 0.8 -1.5
v 0.4 0.4 -7.45058e-08
v 0.4 0.4 -0.1
v 0.4 0.4 -1.3
v 0.4 0.4 -1.5
v 0.4 0.5 -1.3
v 0.4 0.5 -1.5
v 0.4 0.7 -7.45058e-08
v 0.4 0.7 -0.1
v 0.5 0.4 -0.1
v 0.5 0.4 -0.3
v 0.5 0.5 -0.6
v 0.5 0.5 -0.9
v 0.5 0.5 -1.2
v 0.5 0.5 -1.3
v 0.5 0.5 -1.5
v 0.5 0.7 -0.1
v 0.5 0.7 -0.3
v 0.5 0.7 -0.6
v 0.5 0.7 -0.9
v 0.5 0.7 -1.2
v 0.5 0.7 -1.3
v 0.5 0.7 -1.5
v 0.6 0.4 -0.3
v 0.6 0.4 -0.6
v 0.6 0.7 -0.3
v 0.6 0.7 -0.6
v 2.98023e-08 0.4 0.0999999
v 2.98023e-08 0.7 0.0999999
v 0.3 0.4 0.0999999
v 0.3 0.7 0.0999999
v -0.1 0.4 -7.45058e-08
v -0.1 0.7 -7.45058e-08
v 2.98023e-08 0.4 -7.45058e-08
v 2.98023e-08 0.7 -7.45058e-08
v 0.3 0.4 -7.45058e-08
v 0.3 0.7 -7.45058e-08
v 0.4 0.4 -7.45058e-08
v 0.4 0.7 -7.45058e-08
v -0.2 0.4 -0.1
v -0.2 0.7 -0.1
v -0.1 0.4 -0.1
v -0.1 0.7 -0.1
v 0.4 0.4 -0.1
v 0.4 0.7 -0.1
v 0.5 0.4 -0.1
v 0.5 0.7 -0.1
v -0.3 0.4 -0.3
v -0.3 0.7 -0.3
v -0.2 0.4 -0.3
v -0.2 0.7 -0.3
v 0.5 0.4 -0.3
v 0.5 0.7 -0.3
v 0.6 0.4 -0.3
v 0.6 0.7 -0.3
v -0.2 0.5 -1.2
v -0.2 0.7 -1.2
v 2.98023e-08 0.5 -1.2
v 2.98023e-08 0.7 -1.2
v 0.3 0.5 -1.2
v 0.3 0.7 -1.2
v 0.5 0.5 -1.2
v 0.5 0.7 -1.2
v -0.1 0.4 -1.3
v -0.1 0.5 -1.3
v 2.98023e-08 0.3 -1.3
v 2.98023e-08 0.4 -1.3
v 2.98023e-08 0.7 -1.3
v 2.98023e-08 0.8 -1.3
v 0.3 0.3 -1.3
v 0.3 0.4 -1.3
v 0.3 0.7 -1.3
v 0.3 0.8 -1.3
v 0.4 0.4 -1.3
v 0.4 0.5 -1.3
v -0.2 0.4 -0.4
v -0.2 0.5 -0.4
v 0.5 0.4 -0.4
v 0.5 0.5 -0.4
v -0.3 0.4 -0.6
v -0.3 0.7 -0.6
v -0.2 0.4 -0.6
v -0.2 0.5 -0.6
v -0.2 0.7 -0.6
v 0.5 0.4 -0.6
v 0.5 0.5 -0.6
v 0.5 0.7 -0.6
v 0.6 0.4 -0.6
v 0.6 0.7 -0.6
v -0.2 0.5 -0.9
v -0.2 0.7 -0.9
v 2.98023e-08 0.5 -0.9
v 2.98023e-08 0.7 -0.9
v 0.3 0.5 -0.9
v 0.3 0.7 -0.9
v 0.5 0.5 -0.9
v 0.5 0.7 -0.9
v -0.2 0.5 -1.5
v -0.2 0.7 -1.5
v -0.1 0.4 -1.5
v -0.1 0.5 -1.5
v 2.98023e-08 0.3 -1.5
v 2.98023e-08 0.4 -1.5
v 2.98023e-08 0.7 -1.5
v 2.98023e-08 0.8 -1.5
v 0.3 0.3 -1.5
v 0.3 0.4 -1.5
v 0.3 0.7 -1.5
v 0.3 0.8 -1.5
v 0.4 0.4 -1.5
v 0.4 0.5 -1.5
v 0.5 0.5 -1.5
v 0.5 0.7 -1.5
v 2.98023e-08 0.3 -1.3
v 0.3 0.3 -1.3
v 2.98023e-08 0.3 -1.5
v 0.3 0.3 -1.5
v 2.98023e-08 0.4 0.0999999
v 0.3 0.4 0.0999999
v -0.1 0.4 -7.45058e-08
v 2.98023e-08 0.4 -7.45058e-08
v 0.3 0.4 -7.45058e-08
v 0.4 0.4 -7.45058e-08
v -0.2 0.4 -0.1
v -0.1 0.4 -0.1
v 0.4 0.4 -0.1
v 0.5 0.4 -0.1
v -0.3 0.4 -0.3
v -0.2 0.4 -0.3
v 0.5 0.4 -0.3
v 0.6 0.4 -0.3
v -0.2 0.4 -0.4
v 0.5 0.4 -0.4
v -0.3 0.4 -0.6
v -0.2 0.4 -0.6
v 0.5 0.4 -0.6
v 0.6 0.4 -0.6
v -0.1 0.4 -1.3
v 2.98023e-08 0.4 -1.3
v 0.3 0.4 -1.3
v 0.4 0.4 -1.3
v -0.1 0.4 -1.5
v 2.98023e-08 0.4 -1.5
v 0.3 0.4 -1.5
v 0.4 0.4 -1.5
v -0.2 0.5 -0.4
v 0.5 0.5 -0.4
v -0.2 0.5 -0.6
v 0.5 0.5 -0.6
v -0.2 0.5 -0.9
v 2.98023e-08 0.5 -0.9
v 0.3 0.5 -0.9
v 0.5 0.5 -0.9
v -0.2 0.5 -1.2
v 2.98023e-08 0.5 -1.2
v 0.3 0.5 -1.2
v 0.5 0.5 -1.2
v -0.2 0.5 -1.3
v -0.1 0.5 -1.3
v 0.4 0.5 -1.3
v 0.5 0.5 -1.3
v -0.2 0.5 -1.5
v -0.1 0.5 -1.5
v 0.4 0.5 -1.5
v 0.5 0.5 -1.5
v 2.98023e-08 0.7 0.0999999
v 0.3 0.7 0.0999999
v -0.1 0.7 -7.45058e-08
v 2.98023e-08 0.7 -7.45058e-08
v 0.3 0.7 -7.45058e-08
v 0.4 0.7 -7.45058e-08
v -0.2 0.7 -0.1
v -0.1 0.7 -0.1
v 0.4 0.7 -0.1
v 0.5 0.7 -0.1
v -0.3 0.7 -0.3
v -0.2 0.7 -0.3
v 0.5 0.7 -0.3
v 0.6 0.7 -0.3
v -0.2 0.7 -0.4
v 0.5 0.7 -0.4
v -0.3 0.7 -0.6
v -0.2 0.7 -0.6
v 0.5 0.7 -0.6
v 0.6 0.7 -0.6
v -0.2 0.7 -0.9
v 2.98023e-08 0.7 -0.9
v 0.3 0.7 -0.9
v 0.5 0.7 -0.9
v -0.2 0.7 -1.2
v 2.98023e-08 0.7 -1.2
v 0.3 0.7 -1.2
v 0.5 0.7 -1.2
v -0.2 0.7 -1.3
v 2.98023e-08 0.7 -1.3
v 0.3 0.7 -1.3
v 0.5 0.7 -1.3
v -0.2 0.7 -1.5
v 2.98023e-08 0.7 -1.5
v 0.3 0.7 -1.5
v 0.5 0.7 -1.5
v 2.98023e-08 0.8 -1.3
v 0.3 0.8 -1.3
v 2.98023e-08 0.8 -1.5
v 0.3 0.8 -1.5

# faces
f 3/2/1 2/2/1 1/2/1
f 4/2/1 2/2/1 3/2/1
f 12/2/1 6/2/1 5/2/1
f 13/2/1 6/2/1 12/2/1
f 14/1/1 8/1/1 7/1/1
f 15/1/1 8/1/1 14/1/1
f 16/1/1 10/1/1 9/1/1
f 17/2/1 11/2/1 10/2/1
f 17/1/1 10/1/1 16/1/1
f 18/2/1 11/2/1 17/2/1
f 23/2/1 22/2/1 21/2/1
f 24/2/1 22/2/1 23/2/1
f 25/2/1 20/2/1 19/2/1
f 26/2/1 20/2/1 25/2/1
f 31/2/1 28/2/1 27/2/1
f 32/2/1 28/2/1 31/2/1
f 35/2/1 30/2/1 29/2/1
f 36/2/1 30/2/1 35/2/1
f 37/3/1 34/3/1 33/3/1
f 38/3/1 34/3/1 37/3/1
f 41/2/1 40/2/1 39/2/1
f 42/2/1 40/2/1 41/2/1
f 45/2/1 44/2/1 43/2/1
f 46/2/1 44/2/1 45/2/1
f 47/2/2 48/2/2 49/2/2
f 49/2/2 48/2/2 50/2/2
f 51/2/2 52/2/2 55/2/2
f 55/2/2 52/2/2 56/2/2
f 53/2/2 54/2/2 59/2/2
f 59/2/2 54/2/2 60/2/2
f 57/3/2 58/3/2 61/3/2
f 61/3/2 58/3/2 62/3/2
f 63/2/2 64/2/2 65/2/2
f 65/2/2 64/2/2 66/2/2
f 69/2/2 70/2/2 71/2/2
f 71/2/2 70/2/2 72/2/2
f 67/2/2 68/2/2 73/2/2
f 73/2/2 68/2/2 74/2/2
f 75/2/2 76/2/2 82/2/2
f 82/2/2 76/2/2 83/2/2
f 77/1/2 78/1/2 84/1/2
f 84/1/2 78/1/2 85/1/2
f 79/1/2 80/1/2 86/1/2
f 80/2/2 81/2/2 87/2/2
f 86/1/2 80/1/2 87/1/2
f 87/2/2 81/2/2 88/2/2
f 89/2/2 90/2/2 91/2/2
f 91/2/2 90/2/2 92/2/2
f 95/2/3 94/2/3 93/2/3
f 96/2/3 94/2/3 95/2/3
f 99/2/3 98/2/3 97/2/3
f 100/2/3 98/2/3 99/2/3
f 103/2/3 102/2/3 101/2/3
f 104/2/3 102/2/3 103/2/3
f 107/2/3 106/2/3 105/2/3
f 108/2/3 106/2/3 107/2/3
f 111/2/3 110/2/3 109/2/3
f 112/2/3 110/2/3 111/2/3
f 115/2/3 114/2/3 113/2/3
f 116/2/3 114/2/3 115/2/3
f 119/2/3 118/2/3 117/2/3
f 120/2/3 118/2/3 119/2/3
f 123/1/3 122/1/3 121/1/3
f 124/1/3 122/1/3 123/1/3
f 127/1/3 126/1/3 125/1/3
f 128/1/3 126/1/3 127/1/3
f 132/2/3 130/2/3 129/2/3
f 135/2/3 132/2/3 131/2/3
f 136/2/3 130/2/3 132/2/3
f 136/2/3 132/2/3 135/2/3
f 137/2/3 134/2/3 133/2/3
f 138/2/3 134/2/3 137/2/3
f 139/2/3 130/2/3 136/2/3
f 140/2/3 130/2/3 139/2/3
f 141/2/4 142/2/4 143/2/4
f 143/2/4 142/2/4 144/2/4
f 145/2/4 146/2/4 147/2/4
f 147/2/4 146/2/4 148/2/4
f 148/2/4 146/2/4 149/2/4
f 150/2/4 151/2/4 153/2/4
f 151/2/4 152/2/4 153/2/4
f 153/2/4 152/2/4 154/2/4
f 155/1/4 156/1/4 157/1/4
f 157/1/4 156/1/4 158/1/4
f 159/1/4 160/1/4 161/1/4
f 161/1/4 160/1/4 162/1/4
f 163/2/4 164/2/4 166/2/4
f 165/2/4 166/2/4 168/2/4
f 166/2/4 164/2/4 169/2/4
f 168/2/4 166/2/4 169/2/4
f 167/2/4 168/2/4 171/2/4
f 169/2/4 170/2/4 171/2/4
f 168/2/4 169/2/4 171/2/4
f 171/2/4 170/2/4 172/2/4
f 172/2/4 170/2/4 173/2/4
f 173/2/4 170/2/4 174/2/4
f 172/2/4 173/2/4 175/2/4
f 175/2/4 173/2/4 176/2/4
f 176/2/4 173/2/4 177/2/4
f 177/2/4 173/2/4 178/2/4
f 181/2/5 180/2/5 179/2/5
f 182/2/5 180/2/5 181/2/5
f 186/2/5 184/2/5 183/2/5
f 187/2/5 184/2/5 186/2/5
f 190/2/5 186/2/5 185/2/5
f 190/2/5 188/2/5 187/2/5
f 190/2/5 187/2/5 186/2/5
f 191/2/5 188/2/5 190/2/5
f 194/2/5 190/2/5 189/2/5
f 194/2/5 192/2/5 191/2/5
f 194/2/5 191/2/5 190/2/5
f 195/2/5 192/2/5 194/2/5
f 197/2/5 194/2/5 193/2/5
f 197/2/5 196/2/5 195/2/5
f 197/2/5 195/2/5 194/2/5
f 198/2/5 196/2/5 197/2/5
f 199/2/5 197/2/5 193/2/5
f 200/2/5 197/2/5 199/2/5
f 201/2/5 196/2/5 198/2/5
f 202/2/5 196/2/5 201/2/5
f 207/2/5 204/2/5 203/2/5
f 208/2/5 204/2/5 207/2/5
f 209/2/5 206/2/5 205/2/5
f 210/2/5 206/2/5 209/2/5
f 213/3/5 212/3/5 211/3/5
f 214/3/5 212/3/5 213/3/5
f 215/1/5 214/1/5 213/1/5
f 216/1/5 214/1/5 215/1/5
f 217/1/5 214/1/5 216/1/5
f 218/1/5 214/1/5 217/1/5
f 220/3/5 217/3/5 216/3/5
f 221/3/5 217/3/5 220/3/5
f 223/1/5 220/1/5 219/1/5
f 223/1/5 222/1/5 221/1/5
f 223/1/5 221/1/5 220/1/5
f 224/1/5 222/1/5 223/1/5
f 225/1/5 222/1/5 224/1/5
f 226/1/5 222/1/5 225/1/5
f 227/2/5 224/2/5 223/2/5
f 228/2/5 224/2/5 227/2/5
f 229/2/5 226/2/5 225/2/5
f 230/2/5 226/2/5 229/2/5
f 231/2/6 232/2/6 234/2/6
f 234/2/6 232/2/6 235/2/6
f 233/2/6 234/2/6 238/2/6
f 235/2/6 236/2/6 238/2/6
f 234/2/6 235/2/6 238/2/6
f 238/2/6 236/2/6 239/2/6
f 237/2/6 238/2/6 242/2/6
f 239/2/6 240/2/6 242/2/6
f 238/2/6 239/2/6 242/2/6
f 242/2/6 240/2/6 243/2/6
f 241/2/6 242/2/6 245/2/6
f 243/2/6 244/2/6 245/2/6
f 242/2/6 243/2/6 245/2/6
f 245/2/6 244/2/6 246/2/6
f 241/2/6 245/2/6 247/2/6
f 245/3/6 246/3/6 248/3/6
f 247/2/6 245/2/6 248/2/6
f 246/2/6 244/2/6 249/2/6
f 248/3/6 246/3/6 249/3/6
f 249/2/6 244/2/6 250/2/6
f 248/1/6 249/1/6 251/1/6
f 251/1/6 249/1/6 252/1/6
f 252/1/6 249/1/6 253/1/6
f 253/1/6 249/1/6 254/1/6
f 252/3/6 253/3/6 256/3/6
f 256/3/6 253/3/6 257/3/6
f 255/1/6 256/1/6 259/1/6
f 257/1/6 258/1/6 259/1/6
f 256/1/6 257/1/6 259/1/6
f 259/1/6 258/1/6 260/1/6
f 260/1/6 258/1/6 261/1/6
f 261/1/6 258/1/6 262/1/6
f 259/2/6 260/2/6 263/2/6
f 263/2/6 260/2/6 264/2/6
f 261/2/6 262/2/6 265/2/6
f 265/2/6 262/2/6 266/2/6
f 267/2/6 268/2/6 269/2/6
f 269/2/6 268/2/6 270/2/6
